Coordinates
version=1
nRows=14
nColumns=24
inDegrees=yes

Units are S.I. units (second, meters, Newtons, ...)
Angles are in degrees.

endheader
time	pelvis_tilt	pelvis_list	pelvis_rotation	pelvis_tx	pelvis_ty	pelvis_tz	hip_flexion_r	hip_adduction_r	hip_rotation_r	knee_angle_r	ankle_angle_r	subtalar_angle_r	mtp_angle_r	hip_flexion_l	hip_adduction_l	hip_rotation_l	knee_angle_l	ankle_angle_l	subtalar_angle_l	mtp_angle_l	lumbar_extension	lumbar_bending	lumbar_rotation
      1.13000000	     -3.41610511	     -3.13849905	      1.08416475	      0.27535863	      0.99225045	      0.01389360	     -8.71907613	      2.63554993	      2.81242608	     -2.62351255	     10.30878789	      0.00000000	      0.00000000	     21.54770846	     -4.24157840	      4.57863448	     -1.57498931	     -2.59719292	      0.00000000	      0.00000000	    -11.52867096	      6.35042862	      2.93201048
      1.14000000	     -3.32377120	     -2.96782307	      0.89627358	      0.27643089	      0.99159613	      0.01238711	     -8.98339413	      2.33462004	      2.84159162	     -3.35024268	     10.63413805	      0.00000000	      0.00000000	     22.00731254	     -3.88320962	      4.98534020	     -3.72696045	     -2.39406498	      0.00000000	      0.00000000	    -11.62654876	      5.99360213	      3.01362559
      1.15000000	     -3.29894378	     -2.85248730	      0.65680638	      0.27757165	      0.99093428	      0.01092582	     -9.09057007	      2.08473489	      2.96087746	     -4.25604165	     10.93475676	      0.00000000	      0.00000000	     22.51994770	     -3.60758061	      5.37784953	     -5.87381346	     -2.16690273	      0.00000000	      0.00000000	    -11.64353973	      5.68745979	      3.12892025
      1.16000000	     -3.40367920	     -2.83620189	      0.38400047	      0.27870819	      0.99018635	      0.00955376	     -8.95627348	      1.94206041	      3.15444346	     -5.35748699	     11.18426710	      0.00000000	      0.00000000	     23.15323133	     -3.46509823	      5.67671532	     -7.96785937	     -2.05393091	      0.00000000	      0.00000000	    -11.50183596	      5.48180289	      3.26792455
      1.17000000	     -3.36154285	     -2.81266426	      0.10098762	      0.27995236	      0.98982475	      0.00820457	     -8.94353888	      1.79033684	      3.33509025	     -6.51795470	     11.31570182	      0.00000000	      0.00000000	     23.49961120	     -3.35427935	      5.85847109	     -9.81201825	     -1.99332788	      0.00000000	      0.00000000	    -11.52384646	      5.26842240	      3.40699055
      1.18000000	     -3.20559498	     -2.75006666	     -0.14169467	      0.28138830	      0.98992778	      0.00675622	     -9.18048931	      1.58447480	      3.58918219	     -7.37766544	     10.96675282	      0.00000000	      0.00000000	     23.38726009	     -3.23516165	      6.19896851	    -10.94243448	     -2.33927900	      0.00000000	      0.00000000	    -11.65183824	      5.02364550	      3.48407669
      1.19000000	     -3.07880818	     -2.84878695	     -0.45343956	      0.28257854	      0.98988111	      0.00545755	     -8.87041841	      1.58105963	      3.68722246	     -9.31792323	     11.27009240	      0.00000000	      0.00000000	     23.69094794	     -3.26984898	      6.08536773	    -12.95791399	     -1.59496702	      0.00000000	      0.00000000	    -11.78029467	      4.94908303	      3.63411658
      1.20000000	     -2.98191466	     -2.98369005	     -0.69055035	      0.28388661	      0.99017123	      0.00395467	     -8.59242507	      1.60644997	      3.69493144	    -11.05178070	     10.82472286	      0.00000000	      0.00000000	     23.71006713	     -3.34560498	      6.09469802	    -14.27243417	     -1.43105706	      0.00000000	      0.00000000	    -11.84744420	      4.95078035	      3.69010680
      1.21000000	     -2.83317578	     -3.04455868	     -0.79907875	      0.28530843	      0.99084095	      0.00228949	     -8.51319095	      1.56142072	      3.97627578	    -12.43656008	     10.08407430	      0.00000000	      0.00000000	     23.43816091	     -3.30060682	      6.33279351	    -15.09893978	     -1.40442740	      0.00000000	      0.00000000	    -11.94663704	      4.89624737	      3.52671895
      1.22000000	     -2.78595646	     -3.24499069	     -1.10622812	      0.28639390	      0.99123375	      0.00058671	     -7.57949684	      1.64709332	      3.81399186	    -15.34015541	      9.84129864	      0.00000000	      0.00000000	     23.51183220	     -3.43212620	      6.09680870	    -16.53051205	     -0.43884580	      0.00000000	      0.00000000	    -11.97953548	      5.01265641	      3.64298790
      1.23000000	     -3.01924233	     -3.33900154	     -1.41191057	      0.28740415	      0.99148345	     -0.00121499	     -6.30215191	      1.61680563	      3.72850512	    -18.20861492	      9.14320283	      0.00000000	      0.00000000	     23.71243884	     -3.45090115	      6.02292639	    -17.60386948	      0.09230600	      0.00000000	      0.00000000	    -11.67538577	      5.03552081	      3.65324067
      1.24000000	     -2.89341935	     -3.37759943	     -1.60807982	      0.28854079	      0.99244206	     -0.00330190	     -5.43262285	      1.49371085	      3.53846386	    -20.91415040	      7.97269452	      0.00000000	      0.00000000	     23.34119350	     -3.37787581	      5.83631229	    -18.29337462	      0.71688723	      0.00000000	      0.00000000	    -11.76559231	      5.03550096	      3.53974618
      1.25000000	     -2.64197425	     -3.49978277	     -1.74535634	      0.28959580	      0.99378072	     -0.00552856	     -4.64560133	      1.43906797	      3.25814488	    -23.58378596	      6.33192208	      0.00000000	      0.00000000	     22.72600440	     -3.37189724	      5.66589156	    -18.72644491	      1.21391119	      0.00000000	      0.00000000	    -12.00800704	      5.15746627	      3.35443211
      1.26000000	     -2.90671101	     -3.18419619	     -2.06858302	      0.29036122	      0.99417239	     -0.00763346	     -2.72804699	      0.90016447	      2.90966228	    -27.37493602	      5.16305429	      0.00000000	      0.00000000	     22.65488938	     -2.99456047	      5.16939344	    -19.19161051	      1.83157534	      0.00000000	      0.00000000	    -11.63871834	      4.79590041	      3.24101235
